<svg width="4096" height="1024" viewBox="0 0 4096 1024" xmlns="http://www.w3.org/2000/svg" shape-rendering="crispEdges">
<rect width="4096" height="1024" fill="#71BCE1" />
<path d="M174,591 Q230,553,276,503,323,454,371,402,420,350,463,374,507,399,566,522,625,646,670,609,715,573,764,376,814,180,858,323,902,467,948,361,994,256,1055,439,1116,623,1153,530,1190,438,1243,611,1296,785,1355,669,1414,553,1462,377,1511,202,1554,273,1597,344,1643,433,1690,523,1753,372,1816,222,1849,391,1883,561,1938,547,1993,533,2043,320,2093,108,2142,299,2192,490,2237,374,2283,258,2342,380,2401,502,2442,457,2484,413,2536,458,2589,504,2636,405,2684,307,2740,354,2796,401,2846,487,2896,573,2935,486,2974,400,3034,474,3095,548,3135,442,3176,336,3230,465,3284,595,3338,379,3392,163,3445,401,3498,639,3532,427,3566,216,3629,329,3693,442,3739,499,3786,557,3838,364,3891,172,3979,676" fill="transparent" stroke="#E50000" stroke-width="64" stroke-linecap="round" transform="translate(0,0)"/>
<path d="M174,591 Q230,553,276,503,323,454,371,402,420,350,463,374,507,399,566,522,625,646,670,609,715,573,764,376,814,180,858,323,902,467,948,361,994,256,1055,439,1116,623,1153,530,1190,438,1243,611,1296,785,1355,669,1414,553,1462,377,1511,202,1554,273,1597,344,1643,433,1690,523,1753,372,1816,222,1849,391,1883,561,1938,547,1993,533,2043,320,2093,108,2142,299,2192,490,2237,374,2283,258,2342,380,2401,502,2442,457,2484,413,2536,458,2589,504,2636,405,2684,307,2740,354,2796,401,2846,487,2896,573,2935,486,2974,400,3034,474,3095,548,3135,442,3176,336,3230,465,3284,595,3338,379,3392,163,3445,401,3498,639,3532,427,3566,216,3629,329,3693,442,3739,499,3786,557,3838,364,3891,172,3979,676" fill="transparent" stroke="#FF8D00" stroke-width="64" stroke-linecap="round" transform="translate(0,54)"/>
<path d="M174,591 Q230,553,276,503,323,454,371,402,420,350,463,374,507,399,566,522,625,646,670,609,715,573,764,376,814,180,858,323,902,467,948,361,994,256,1055,439,1116,623,1153,530,1190,438,1243,611,1296,785,1355,669,1414,553,1462,377,1511,202,1554,273,1597,344,1643,433,1690,523,1753,372,1816,222,1849,391,1883,561,1938,547,1993,533,2043,320,2093,108,2142,299,2192,490,2237,374,2283,258,2342,380,2401,502,2442,457,2484,413,2536,458,2589,504,2636,405,2684,307,2740,354,2796,401,2846,487,2896,573,2935,486,2974,400,3034,474,3095,548,3135,442,3176,336,3230,465,3284,595,3338,379,3392,163,3445,401,3498,639,3532,427,3566,216,3629,329,3693,442,3739,499,3786,557,3838,364,3891,172,3979,676" fill="transparent" stroke="#FFEE00" stroke-width="64" stroke-linecap="round" transform="translate(0,108)"/>
<path d="M174,591 Q230,553,276,503,323,454,371,402,420,350,463,374,507,399,566,522,625,646,670,609,715,573,764,376,814,180,858,323,902,467,948,361,994,256,1055,439,1116,623,1153,530,1190,438,1243,611,1296,785,1355,669,1414,553,1462,377,1511,202,1554,273,1597,344,1643,433,1690,523,1753,372,1816,222,1849,391,1883,561,1938,547,1993,533,2043,320,2093,108,2142,299,2192,490,2237,374,2283,258,2342,380,2401,502,2442,457,2484,413,2536,458,2589,504,2636,405,2684,307,2740,354,2796,401,2846,487,2896,573,2935,486,2974,400,3034,474,3095,548,3135,442,3176,336,3230,465,3284,595,3338,379,3392,163,3445,401,3498,639,3532,427,3566,216,3629,329,3693,442,3739,499,3786,557,3838,364,3891,172,3979,676" fill="transparent" stroke="#028121" stroke-width="64" stroke-linecap="round" transform="translate(0,162)"/>
<path d="M174,591 Q230,553,276,503,323,454,371,402,420,350,463,374,507,399,566,522,625,646,670,609,715,573,764,376,814,180,858,323,902,467,948,361,994,256,1055,439,1116,623,1153,530,1190,438,1243,611,1296,785,1355,669,1414,553,1462,377,1511,202,1554,273,1597,344,1643,433,1690,523,1753,372,1816,222,1849,391,1883,561,1938,547,1993,533,2043,320,2093,108,2142,299,2192,490,2237,374,2283,258,2342,380,2401,502,2442,457,2484,413,2536,458,2589,504,2636,405,2684,307,2740,354,2796,401,2846,487,2896,573,2935,486,2974,400,3034,474,3095,548,3135,442,3176,336,3230,465,3284,595,3338,379,3392,163,3445,401,3498,639,3532,427,3566,216,3629,329,3693,442,3739,499,3786,557,3838,364,3891,172,3979,676" fill="transparent" stroke="#004CFF" stroke-width="64" stroke-linecap="round" transform="translate(0,216)"/>
<path d="M174,591 Q230,553,276,503,323,454,371,402,420,350,463,374,507,399,566,522,625,646,670,609,715,573,764,376,814,180,858,323,902,467,948,361,994,256,1055,439,1116,623,1153,530,1190,438,1243,611,1296,785,1355,669,1414,553,1462,377,1511,202,1554,273,1597,344,1643,433,1690,523,1753,372,1816,222,1849,391,1883,561,1938,547,1993,533,2043,320,2093,108,2142,299,2192,490,2237,374,2283,258,2342,380,2401,502,2442,457,2484,413,2536,458,2589,504,2636,405,2684,307,2740,354,2796,401,2846,487,2896,573,2935,486,2974,400,3034,474,3095,548,3135,442,3176,336,3230,465,3284,595,3338,379,3392,163,3445,401,3498,639,3532,427,3566,216,3629,329,3693,442,3739,499,3786,557,3838,364,3891,172,3979,676" fill="transparent" stroke="#770088" stroke-width="64" stroke-linecap="round" transform="translate(0,270)"/>
</svg>
