<svg width="1024" height="1024" viewBox="0 0 1024 1024" xmlns="http://www.w3.org/2000/svg" shape-rendering="crispEdges">
<rect width="1024" height="1024" fill="#71BCE1" />
<path d="M152,209 Q190,294,230,338,271,382,318,533,365,684,413,471,461,259,511,446,562,634,599,450,636,267,684,411,732,555,786,528,841,502,907,323" fill="transparent" stroke="#D12229" stroke-width="64" stroke-linecap="round" transform="translate(0,0)"/>
<path d="M152,209 Q190,294,230,338,271,382,318,533,365,684,413,471,461,259,511,446,562,634,599,450,636,267,684,411,732,555,786,528,841,502,907,323" fill="transparent" stroke="#F68A1E" stroke-width="64" stroke-linecap="round" transform="translate(0,54)"/>
<path d="M152,209 Q190,294,230,338,271,382,318,533,365,684,413,471,461,259,511,446,562,634,599,450,636,267,684,411,732,555,786,528,841,502,907,323" fill="transparent" stroke="#FDE01A" stroke-width="64" stroke-linecap="round" transform="translate(0,108)"/>
<path d="M152,209 Q190,294,230,338,271,382,318,533,365,684,413,471,461,259,511,446,562,634,599,450,636,267,684,411,732,555,786,528,841,502,907,323" fill="transparent" stroke="#007940" stroke-width="64" stroke-linecap="round" transform="translate(0,162)"/>
<path d="M152,209 Q190,294,230,338,271,382,318,533,365,684,413,471,461,259,511,446,562,634,599,450,636,267,684,411,732,555,786,528,841,502,907,323" fill="transparent" stroke="#24408E" stroke-width="64" stroke-linecap="round" transform="translate(0,216)"/>
<path d="M152,209 Q190,294,230,338,271,382,318,533,365,684,413,471,461,259,511,446,562,634,599,450,636,267,684,411,732,555,786,528,841,502,907,323" fill="transparent" stroke="#732982" stroke-width="64" stroke-linecap="round" transform="translate(0,270)"/>
</svg>
